<?xml version="1.0" standalone="no"?>
<!DOCTYPE svg PUBLIC "-//W3C//DTD SVG 20010904//EN"
 "http://www.w3.org/TR/2001/REC-SVG-20010904/DTD/svg10.dtd">
<svg version="1.0" xmlns="http://www.w3.org/2000/svg"
 width="1536.000000pt" height="1536.000000pt" viewBox="0 0 1536.000000 1536.000000"
 preserveAspectRatio="xMidYMid meet">

<g transform="translate(0.000000,1536.000000) scale(0.100000,-0.100000)"
fill="#000000" stroke="none">
<path d="M6423 15348 c1 -9 -22 -15 -73 -21 -224 -23 -537 -90 -715 -154 -38
-13 -83 -28 -100 -33 -42 -11 -316 -130 -405 -176 -478 -245 -908 -606 -1236
-1039 -57 -74 -184 -262 -184 -270 0 -2 -13 -24 -30 -48 -41 -62 -167 -310
-223 -442 -109 -256 -201 -590 -241 -875 -101 -703 12 -1414 325 -2055 143
-293 293 -522 501 -760 235 -271 436 -448 753 -664 136 -92 454 -260 602 -317
120 -46 257 -95 293 -104 66 -17 140 -39 150 -45 6 -3 31 -10 58 -15 26 -4 91
-18 144 -29 219 -46 407 -63 698 -63 333 0 473 15 848 93 24 5 48 12 54 15 6
4 28 11 47 15 153 34 454 150 651 252 303 156 565 336 796 548 210 192 429
447 559 649 26 41 61 94 76 118 16 24 29 45 29 47 0 2 19 36 43 77 78 132 180
353 240 519 203 565 264 1144 181 1719 -97 665 -367 1271 -796 1780 -378 450
-807 768 -1348 1000 -80 34 -158 66 -175 70 -16 5 -55 18 -85 29 -149 58 -508
135 -730 158 -51 6 -74 12 -72 21 1 9 -68 12 -318 12 -250 0 -319 -3 -317 -12z"/>
<path d="M5660 7430 c-343 -17 -715 -76 -1030 -165 -25 -7 -72 -20 -105 -30
-420 -119 -924 -347 -1291 -585 -13 -8 -51 -33 -86 -55 -230 -144 -565 -421
-820 -677 -403 -405 -706 -824 -963 -1331 -41 -82 -89 -181 -106 -220 -54
-123 -91 -211 -99 -237 -5 -14 -18 -50 -30 -80 -66 -172 -153 -462 -185 -615
-8 -38 -22 -101 -30 -140 -9 -38 -20 -97 -25 -130 -5 -33 -13 -85 -19 -115
-52 -274 -80 -804 -49 -906 43 -139 126 -223 273 -276 47 -17 285 -18 5645
-18 5360 0 5598 1 5645 18 84 30 128 58 177 109 89 96 112 169 110 348 -2 165
-19 402 -37 527 -8 53 -15 112 -15 130 0 18 -6 65 -15 103 -8 39 -23 117 -34
175 -25 129 -65 306 -87 380 -24 84 -103 331 -119 370 -8 19 -30 78 -50 130
-20 52 -44 113 -54 135 -10 22 -30 67 -44 100 -32 76 -166 341 -212 420 -19
33 -39 69 -45 80 -6 11 -18 32 -28 47 -9 14 -30 48 -46 75 -16 26 -67 104
-114 173 -341 500 -791 962 -1280 1315 -328 237 -811 499 -1147 621 -85 31
-333 113 -390 129 -33 10 -80 23 -105 31 -55 17 -249 63 -310 74 -25 4 -97 17
-160 28 -162 30 -363 51 -590 62 -223 11 -1896 11 -2130 0z"/>
</g>
</svg>
